<svg id="molecule_icon" viewBox="-1049.220751308982 -1049.220751308982 2098.441502617964 2098.441502617964" xmlns="http://www.w3.org/2000/svg" xmlns:xlink="http://www.w3.org/1999/xlink">
	<defs>
		<g id="O">
			<circle cx="0" cy="0" r="100.0" fill="#FF0D0D" stroke="#540404" stroke-width="10.0" />
			<path d="M70,-70 A90.0,90.0 0, 1, 1 -70,70 M-70,70 A120.0,120.0 0, 0,0 70, -70 Z" fill="#540404" stroke-width="0" />
		</g>
		<g id="H">
			<circle cx="0" cy="0" r="100.0" fill="#FFFFFF" stroke="#555555" stroke-width="10.0" />
			<path d="M70,-70 A90.0,90.0 0, 1, 1 -70,70 M-70,70 A120.0,120.0 0, 0,0 70, -70 Z" fill="#555555" stroke-width="0" />
		</g>
		<g id="C">
			<circle cx="0" cy="0" r="100.0" fill="#909090" stroke="#303030" stroke-width="10.0" />
			<path d="M70,-70 A90.0,90.0 0, 1, 1 -70,70 M-70,70 A120.0,120.0 0, 0,0 70, -70 Z" fill="#303030" stroke-width="0" />
		</g>
		<g id="N">
			<circle cx="0" cy="0" r="100.0" fill="#3050F8" stroke="#101a52" stroke-width="10.0" />
			<path d="M70,-70 A90.0,90.0 0, 1, 1 -70,70 M-70,70 A120.0,120.0 0, 0,0 70, -70 Z" fill="#101a52" stroke-width="0" />
		</g>
	</defs>
	<line stroke="#323232" stroke-linecap="round" stroke-width="45.0" x1="-253.13201414536977" y1="-405.8717737684418" x2="-349.7949847799969" y2="-255.42221238459976" />
	<line stroke="#323232" stroke-linecap="round" stroke-width="45.0" x1="-191.13201414536977" y1="-365.8717737684418" x2="-287.7949847799969" y2="-215.42221238459976" />
	<line stroke="#979797" stroke-linecap="round" stroke-width="25.0" x1="-253.13201414536977" y1="-405.8717737684418" x2="-349.7949847799969" y2="-255.42221238459976" />
	<line stroke="#979797" stroke-linecap="round" stroke-width="25.0" x1="-191.13201414536977" y1="-365.8717737684418" x2="-287.7949847799969" y2="-215.42221238459976" />
	<use href="#O" xlink:href="#O" transform="translate(-318.7949847799969 -235.42221238459976)" />
	<line stroke="#323232" stroke-linecap="round" stroke-width="45.0" x1="-306.44711252843143" y1="-672.3020006801545" x2="-159.52349008470622" y2="-796.8443586193209" />
	<line stroke="#979797" stroke-linecap="round" stroke-width="25.0" x1="-306.44711252843143" y1="-672.3020006801545" x2="-159.52349008470622" y2="-796.8443586193209" />
	<use href="#H" xlink:href="#H" transform="translate(-159.52349008470622 -796.8443586193209)" />
	<line stroke="#323232" stroke-linecap="round" stroke-width="45.0" x1="-306.44711252843143" y1="-672.3020006801545" x2="-507.0743993655845" y2="-697.3867072202456" />
	<line stroke="#979797" stroke-linecap="round" stroke-width="25.0" x1="-306.44711252843143" y1="-672.3020006801545" x2="-507.0743993655845" y2="-697.3867072202456" />
	<use href="#H" xlink:href="#H" transform="translate(-507.0743993655845 -697.3867072202456)" />
	<line stroke="#323232" stroke-linecap="round" stroke-width="45.0" x1="-306.44711252843143" y1="-672.3020006801545" x2="-222.13201414536977" y2="-385.8717737684418" />
	<line stroke="#979797" stroke-linecap="round" stroke-width="25.0" x1="-306.44711252843143" y1="-672.3020006801545" x2="-222.13201414536977" y2="-385.8717737684418" />
	<line stroke="#323232" stroke-linecap="round" stroke-width="45.0" x1="-222.13201414536977" y1="-385.8717737684418" x2="-18.86624501379528" y2="-289.8537394088928" />
	<line stroke="#979797" stroke-linecap="round" stroke-width="25.0" x1="-222.13201414536977" y1="-385.8717737684418" x2="-18.86624501379528" y2="-289.8537394088928" />
	<use href="#C" xlink:href="#C" transform="translate(-222.13201414536977 -385.8717737684418)" />
	<line stroke="#323232" stroke-linecap="round" stroke-width="45.0" x1="-306.44711252843143" y1="-672.3020006801545" x2="-316.09739135328397" y2="-740.2891929481026" />
	<line stroke="#979797" stroke-linecap="round" stroke-width="25.0" x1="-306.44711252843143" y1="-672.3020006801545" x2="-316.09739135328397" y2="-740.2891929481026" />
	<use href="#C" xlink:href="#C" transform="translate(-306.44711252843143 -672.3020006801545)" />
	<line stroke="#323232" stroke-linecap="round" stroke-width="45.0" x1="-142.87630373648628" y1="190.8236007814879" x2="-350.495236250976" y2="143.21270113939937" />
	<line stroke="#979797" stroke-linecap="round" stroke-width="25.0" x1="-142.87630373648628" y1="190.8236007814879" x2="-350.495236250976" y2="143.21270113939937" />
	<use href="#H" xlink:href="#H" transform="translate(-350.495236250976 143.21270113939937)" />
	<line stroke="#323232" stroke-linecap="round" stroke-width="45.0" x1="-18.86624501379528" y1="-289.8537394088928" x2="50.73438011680642" y2="-12.53956090270194" />
	<line stroke="#979797" stroke-linecap="round" stroke-width="25.0" x1="-18.86624501379528" y1="-289.8537394088928" x2="50.73438011680642" y2="-12.53956090270194" />
	<line stroke="#323232" stroke-linecap="round" stroke-width="45.0" x1="-18.86624501379528" y1="-289.8537394088928" x2="96.28494561220691" y2="-432.1140167996945" />
	<line stroke="#979797" stroke-linecap="round" stroke-width="25.0" x1="-18.86624501379528" y1="-289.8537394088928" x2="96.28494561220691" y2="-432.1140167996945" />
	<use href="#N" xlink:href="#N" transform="translate(-18.86624501379528 -289.8537394088928)" />
	<line stroke="#323232" stroke-linecap="round" stroke-width="45.0" x1="23.73438011680642" y1="-37.539560902701936" x2="-169.87630373648628" y2="165.8236007814879" />
	<line stroke="#323232" stroke-linecap="round" stroke-width="45.0" x1="77.73438011680642" y1="12.46043909729806" x2="-115.87630373648628" y2="215.8236007814879" />
	<line stroke="#979797" stroke-linecap="round" stroke-width="25.0" x1="23.73438011680642" y1="-37.539560902701936" x2="-169.87630373648628" y2="165.8236007814879" />
	<line stroke="#979797" stroke-linecap="round" stroke-width="25.0" x1="77.73438011680642" y1="12.46043909729806" x2="-115.87630373648628" y2="215.8236007814879" />
	<line stroke="#323232" stroke-linecap="round" stroke-width="45.0" x1="-142.87630373648628" y1="190.8236007814879" x2="-70.49488271263502" y2="458.5588803909164" />
	<line stroke="#979797" stroke-linecap="round" stroke-width="25.0" x1="-142.87630373648628" y1="190.8236007814879" x2="-70.49488271263502" y2="458.5588803909164" />
	<use href="#C" xlink:href="#C" transform="translate(-142.87630373648628 190.8236007814879)" />
	<line stroke="#323232" stroke-linecap="round" stroke-width="45.0" x1="315.37735368396847" y1="56.5476321582767" x2="50.73438011680642" y2="-12.53956090270194" />
	<line stroke="#979797" stroke-linecap="round" stroke-width="25.0" x1="315.37735368396847" y1="56.5476321582767" x2="50.73438011680642" y2="-12.53956090270194" />
	<use href="#C" xlink:href="#C" transform="translate(50.73438011680642 -12.53956090270194)" />
	<line stroke="#323232" stroke-linecap="round" stroke-width="45.0" x1="-70.49488271263502" y1="458.5588803909164" x2="-220.90789378438478" y2="613.529565781366" />
	<line stroke="#979797" stroke-linecap="round" stroke-width="25.0" x1="-70.49488271263502" y1="458.5588803909164" x2="-220.90789378438478" y2="613.529565781366" />
	<use href="#H" xlink:href="#H" transform="translate(-220.90789378438478 613.529565781366)" />
	<use href="#H" xlink:href="#H" transform="translate(-316.09739135328397 -740.2891929481026)" />
	<line stroke="#323232" stroke-linecap="round" stroke-width="45.0" x1="-79.49488271263502" y1="494.5588803909164" x2="185.44469664780013" y2="562.2228724489844" />
	<line stroke="#323232" stroke-linecap="round" stroke-width="45.0" x1="-61.49488271263502" y1="422.5588803909164" x2="203.44469664780013" y2="490.2228724489844" />
	<line stroke="#979797" stroke-linecap="round" stroke-width="25.0" x1="-79.49488271263502" y1="494.5588803909164" x2="185.44469664780013" y2="562.2228724489844" />
	<line stroke="#979797" stroke-linecap="round" stroke-width="25.0" x1="-61.49488271263502" y1="422.5588803909164" x2="203.44469664780013" y2="490.2228724489844" />
	<use href="#C" xlink:href="#C" transform="translate(-70.49488271263502 458.5588803909164)" />
	<line stroke="#323232" stroke-linecap="round" stroke-width="45.0" x1="423.31668971920254" y1="315.37715898657484" x2="351.37735368396847" y2="47.5476321582767" />
	<line stroke="#323232" stroke-linecap="round" stroke-width="45.0" x1="351.31668971920254" y1="333.37715898657484" x2="279.37735368396847" y2="65.5476321582767" />
	<line stroke="#979797" stroke-linecap="round" stroke-width="25.0" x1="423.31668971920254" y1="315.37715898657484" x2="351.37735368396847" y2="47.5476321582767" />
	<line stroke="#979797" stroke-linecap="round" stroke-width="25.0" x1="351.31668971920254" y1="333.37715898657484" x2="279.37735368396847" y2="65.5476321582767" />
	<line stroke="#323232" stroke-linecap="round" stroke-width="45.0" x1="315.37735368396847" y1="56.5476321582767" x2="466.4054850193008" y2="-97.4529376660833" />
	<line stroke="#979797" stroke-linecap="round" stroke-width="25.0" x1="315.37735368396847" y1="56.5476321582767" x2="466.4054850193008" y2="-97.4529376660833" />
	<use href="#C" xlink:href="#C" transform="translate(315.37735368396847 56.5476321582767)" />
	<use href="#H" xlink:href="#H" transform="translate(96.28494561220691 -432.1140167996945)" />
	<line stroke="#323232" stroke-linecap="round" stroke-width="45.0" x1="194.44469664780013" y1="526.2228724489844" x2="387.31668971920254" y2="324.37715898657484" />
	<line stroke="#979797" stroke-linecap="round" stroke-width="25.0" x1="194.44469664780013" y1="526.2228724489844" x2="387.31668971920254" y2="324.37715898657484" />
	<line stroke="#323232" stroke-linecap="round" stroke-width="45.0" x1="194.44469664780013" y1="526.2228724489844" x2="263.6442489412594" y2="793.7949340286392" />
	<line stroke="#979797" stroke-linecap="round" stroke-width="25.0" x1="194.44469664780013" y1="526.2228724489844" x2="263.6442489412594" y2="793.7949340286392" />
	<use href="#C" xlink:href="#C" transform="translate(194.44469664780013 526.2228724489844)" />
	<use href="#H" xlink:href="#H" transform="translate(466.4054850193008 -97.4529376660833)" />
	<line stroke="#323232" stroke-linecap="round" stroke-width="45.0" x1="387.31668971920254" y1="324.37715898657484" x2="592.6862417762177" y2="374.68184167803247" />
	<line stroke="#979797" stroke-linecap="round" stroke-width="25.0" x1="387.31668971920254" y1="324.37715898657484" x2="592.6862417762177" y2="374.68184167803247" />
	<use href="#C" xlink:href="#C" transform="translate(387.31668971920254 324.37715898657484)" />
	<line stroke="#323232" stroke-linecap="round" stroke-width="45.0" x1="263.6442489412594" y1="793.7949340286392" x2="453.81446978840137" y2="849.220751308982" />
	<line stroke="#979797" stroke-linecap="round" stroke-width="25.0" x1="263.6442489412594" y1="793.7949340286392" x2="453.81446978840137" y2="849.220751308982" />
	<use href="#O" xlink:href="#O" transform="translate(263.6442489412594 793.7949340286392)" />
	<use href="#H" xlink:href="#H" transform="translate(592.6862417762177 374.68184167803247)" />
	<use href="#H" xlink:href="#H" transform="translate(453.81446978840137 849.220751308982)" />
</svg>